<svg height="512" viewBox="0 0 64 64" width="512" xmlns="http://www.w3.org/2000/svg"><g id="Filled_outline" data-name="Filled outline"><path d="m25 13v-2a4.01 4.01 0 0 0 -4.015-4.014 4.009 4.009 0 0 0 -3.985 4.014v6a7.651 7.651 0 0 0 2 5z" fill="#ad6327"/><path d="m39.009 13-.009-2a3.985 3.985 0 0 1 4-4h.005a4.01 4.01 0 0 1 3.995 4v6a7.666 7.666 0 0 1 -1.991 5z" fill="#ad6327"/><path d="m45 22-6-9h-14.043l-5.957 9v4l-1 6a2.843 2.843 0 0 0 2 3l4 2h16l4-2a2.843 2.843 0 0 0 2-3l-1-6z" fill="#d3843d"/><path d="m39 30c-5-2-4.525-5-7-5s-2 3-7 5-3 7 1 7h3l3-4 3 4h3c4 0 6-5 1-7z" fill="#ffd782"/><circle cx="32" cy="27" fill="#394d5c" r="2"/><path d="m13 57h8v4h-8z" fill="#7fcac9"/><path d="m43 57h8v4h-8z" fill="#7fcac9"/><path d="m51 57h-38c-2.017 0-3.75-1-4-3l-2-13h50l-2 13c-.25 2-1.983 3-4 3z" fill="#2d75bb"/><rect fill="#7fcac9" height="4" rx="2" width="58" x="3" y="37"/><path d="m15 37h8a0 0 0 0 1 0 0v4a4 4 0 0 1 -4 4 4 4 0 0 1 -4-4v-4a0 0 0 0 1 0 0z" fill="#f4f4e6"/><path d="m39 37h8a0 0 0 0 1 0 0v4a4 4 0 0 1 -4 4 4 4 0 0 1 -4-4v-4a0 0 0 0 1 0 0z" fill="#fff"/><path d="m39 37v8a2 2 0 0 1 -4 0 2 2 0 0 0 -4 0v4a2 2 0 0 1 -4 0v-12z" fill="#f4f4e6"/><g fill="#87cee9"><path d="m34 3a3 3 0 0 0 -3 3 2.822 2.822 0 0 0 .03.293 2 2 0 1 0 .949 1.907 3 3 0 1 0 2.021-5.2z"/><path d="m7 19a3 3 0 0 0 3 3 2.822 2.822 0 0 0 .293-.03 2 2 0 1 0 1.911-.949 3 3 0 1 0 -5.204-2.021z"/><circle cx="9" cy="31" r="2"/><circle cx="53" cy="29" r="3"/><circle cx="57" cy="21" r="2"/></g><circle cx="40" cy="24" r="2"/><circle cx="24" cy="24" r="2"/><path d="m34.445 22.721 1.11-1.664a6.61 6.61 0 0 0 -7.11 0l1.11 1.664a4.628 4.628 0 0 1 4.89 0z"/><path d="m26 32h2v2h-2z"/><path d="m36 32h2v2h-2z"/><path d="m5 42h1.142l1.866 12.124a4.384 4.384 0 0 0 3.992 3.803v3.073a1 1 0 0 0 1 1h8a1 1 0 0 0 1-1v-3h20v3a1 1 0 0 0 1 1h8a1 1 0 0 0 1-1v-3.073a4.373 4.373 0 0 0 3.988-3.775l1.87-12.152h1.142a3.017 3.017 0 0 0 3-3 3 3 0 0 0 -3-3h-14.764l.167-.083a3.857 3.857 0 0 0 2.583-4.082l-.986-5.918v-3.533a8.593 8.593 0 0 0 2-5.384v-6a5.006 5.006 0 0 0 -8.564-3.516 4.907 4.907 0 0 0 -1.436 3.516v1h-12v-.991a4.923 4.923 0 0 0 -1.443-3.532 5 5 0 0 0 -8.557 3.523v6a8.577 8.577 0 0 0 2 5.375v3.542l-.992 5.959a3.849 3.849 0 0 0 2.592 4.041l.167.083h-14.767a3.017 3.017 0 0 0 -3 3 3 3 0 0 0 3 3zm15 18h-6v-2h6zm30 0h-6v-2h6zm-2-22h11a1 1 0 0 1 1 1 .978.978 0 0 1 -.306.712.957.957 0 0 1 -.694.288h-11zm-2 0v3a3 3 0 0 1 -6 0v-3zm-8 0v7a1 1 0 0 1 -2 0 3 3 0 0 0 -6 0v4a1 1 0 0 1 -2 0v-11zm-7-2 1-1.333 1 1.333zm4.5 0-2.7-3.6a1.036 1.036 0 0 0 -1.6 0l-2.7 3.6h-2.5a2.844 2.844 0 0 1 -2.93-2.1c-.229-1.19.631-2.3 2.3-2.967a11.1 11.1 0 0 0 3.974-2.561 2.976 2.976 0 0 0 5.31 0 11.1 11.1 0 0 0 3.974 2.561c1.67.668 2.53 1.777 2.3 2.967a2.844 2.844 0 0 1 -2.928 2.1zm-9.5 2v2h-2v-2zm5-11a1 1 0 1 1 1 1 1 1 0 0 1 -1-1zm9.856-18.108a3.007 3.007 0 0 1 5.144 2.108v6a6.417 6.417 0 0 1 -.946 3.265l-1.054-1.581v-7.684a1 1 0 0 0 -2 0v4.684l-1.992-2.984-.008-1.709a2.926 2.926 0 0 1 .856-2.099zm-22.856 8.108v-6a3 3 0 0 1 5.137-2.115 2.947 2.947 0 0 1 .863 2.115v1.634l-2 3.022v-4.656a1 1 0 0 0 -2 0v7.677l-1.053 1.592a6.371 6.371 0 0 1 -.947-3.269zm.986 15.165 1-6a1.021 1.021 0 0 0 .014-.165v-3.7l5.535-8.3h12.93l5.535 8.3v3.7a1.021 1.021 0 0 0 .014.165l.994 5.959a1.866 1.866 0 0 1 -1.359 1.939c-.033.013-.811.4-.811.4.015-.064.043-.124.056-.189.328-1.7-.425-3.963-3.523-5.2a9.2 9.2 0 0 1 -4.225-3.179 3.836 3.836 0 0 0 -3.146-1.895 3.836 3.836 0 0 0 -3.146 1.892 9.2 9.2 0 0 1 -4.225 3.179c-3.1 1.24-3.851 3.5-3.523 5.2.013.065.041.125.056.189 0 0-.778-.387-.811-.4a1.861 1.861 0 0 1 -1.365-1.895zm-2.986 5.835h6v3a3 3 0 0 1 -6 0zm3 8a5.009 5.009 0 0 0 4.9-4h2.1v7a3 3 0 0 0 6 0v-4a1 1 0 0 1 2 0 3 3 0 0 0 6 0v-.026a4.948 4.948 0 0 0 3 1.026 5.009 5.009 0 0 0 4.9-4h7.935l-1.827 11.876c-.246 1.971-2.364 2.124-3.008 2.124h-38c-.644 0-2.762-.153-3.012-2.152l-1.822-11.848h5.934a5.009 5.009 0 0 0 4.9 4zm-14.694-7.712a.957.957 0 0 1 .694-.288h9v2h-9a1 1 0 0 1 -1-1 .978.978 0 0 1 .306-.712z"/><path d="m30.126 5a3 3 0 1 0 -.126 6 2.98 2.98 0 0 0 2.472-1.309 3.928 3.928 0 0 0 1.528.309 4 4 0 1 0 -3.874-5zm5.874 1a1.99 1.99 0 0 1 -3.345 1.467 1 1 0 0 0 -1.671.636.991.991 0 0 1 -.984.897 1 1 0 0 1 0-2 .978.978 0 0 1 .512.149 1 1 0 0 0 1.512-.955c-.001-.011-.024-.183-.024-.194a2 2 0 0 1 4 0z"/><path d="m6 31a3 3 0 1 0 3-3 3 3 0 0 0 -3 3zm4 0a1 1 0 1 1 -1-1 1 1 0 0 1 1 1z"/><path d="m49 29a4 4 0 1 0 4-4 4 4 0 0 0 -4 4zm6 0a2 2 0 1 1 -2-2 2 2 0 0 1 2 2z"/><path d="m60 21a3 3 0 1 0 -3 3 3 3 0 0 0 3-3zm-4 0a1 1 0 1 1 1 1 1 1 0 0 1 -1-1z"/><path d="m12 52h2v2h-2z"/><path d="m16 52h2v2h-2z"/><path d="m15 23a2.978 2.978 0 0 0 -1.309-2.471 3.933 3.933 0 0 0 .309-1.529 4 4 0 1 0 -5 3.874q0 .063 0 .126a3 3 0 0 0 6 0zm-4 0a1 1 0 0 1 .149-.514 1 1 0 0 0 -.856-1.516c-.033 0-.066 0-.1.005l-.193.025a2.024 2.024 0 1 1 1.468-.656 1 1 0 0 0 .634 1.671 1 1 0 1 1 -1.102.985z"/></g></svg>