<svg id="Layer_1" enable-background="new 0 0 511.537 511.537" height="512" viewBox="0 0 511.537 511.537" width="512" xmlns="http://www.w3.org/2000/svg"><g><path clip-rule="evenodd" d="m255.769 461.537c71.601 0 130-58.398 130-130-7.344-172.476-252.682-172.425-260 .001 0 71.601 58.398 129.999 130 129.999z" fill="#ffbebc" fill-rule="evenodd"/><g fill="#020288"><path d="m455.766 481.226-10-320.001c-.521-16.647-13.696-29.688-29.995-29.688h-70.001v-42.002c-4.958-119.427-175.087-119.334-180 0v42.002h-70.003c-16.299 0-29.475 13.04-29.995 29.688l-10 320.001c-.246 7.851 2.687 15.339 8.256 21.085 5.683 5.864 13.606 9.227 21.738 9.227h340.004c8.13 0 16.053-3.362 21.736-9.227 5.572-5.747 8.505-13.236 8.26-21.085zm-269.997-391.691c3.857-92.887 136.178-92.816 140 0v42.002h-140zm247.377 398.856c-1.938 2-4.626 3.146-7.375 3.146h-340.005c-2.75 0-5.439-1.146-7.376-3.146-1.77-1.825-2.703-4.148-2.628-6.541l10-320.001c.181-5.783 4.576-10.312 10.005-10.312h70.002v16.947c.529 13.268 19.476 13.258 20 0v-16.947h140v16.947c.529 13.268 19.476 13.258 20 0v-16.947h70.001c5.429 0 9.824 4.53 10.005 10.312l10 320c.075 2.392-.859 4.716-2.629 6.542z"/><path d="m299.978 352.906c-.671-.167-2.633-.658-3.31-.941-.609-.63-2.065-2.767-2.866-3.942-17.637-26.654-58.435-26.649-76.066.001-.801 1.175-2.257 3.312-2.866 3.941-.677.283-2.639.774-3.311.942-38.601 10.46-31.73 66.139 8.21 66.992h72.001c39.967-.864 46.785-56.547 8.208-66.993zm-8.209 46.994h-72.001c-16.524-.439-19.215-23.147-3.361-27.589 9.761-2.439 12.248-4.794 17.856-13.026 9.979-15.08 33.034-15.076 43.01 0 5.608 8.232 8.095 10.587 17.856 13.025 15.865 4.451 13.152 27.155-3.36 27.59z"/><path d="m255.768 314.622c39.982-.506 39.963-70.953 0-71.447-14.907 0-29.999 12.27-29.999 35.724 0 10.404 3.016 19.352 8.723 25.876 5.473 6.257 13.228 9.847 21.276 9.847zm0-51.447c2.313 0 4.523 1.071 6.223 3.015 6.896 8.066 4.288 28.695-6.223 28.432-13.385.132-13.377-31.585 0-31.447z"/><path d="m194.76 343.154c7.773-2.083 14.335-7.558 18.003-15.019 3.824-7.779 4.421-17.203 1.729-27.252-2.693-10.05-7.922-17.912-15.123-22.737-6.907-4.629-15.327-6.089-23.101-4.005-14.4 3.859-25.802 19.617-19.731 42.271 6.31 21.903 21.75 30.511 38.223 26.742zm-18.905-31.918c-1.42-5.303-1.296-9.886.359-13.253 1.139-2.318 2.997-3.924 5.23-4.522 5.854-1.206 10.881 2.695 13.729 12.599 2.811 10.491-.782 16.487-5.589 17.775-2.233.6-4.646.138-6.792-1.301-3.117-2.089-5.516-5.997-6.937-11.298z"/><path d="m335.269 274.141c-14.398-3.854-32.153 4.088-38.224 26.742-2.693 10.049-2.095 19.473 1.729 27.252 3.667 7.461 10.229 12.936 18.003 15.019 16.47 3.77 31.915-4.84 38.224-26.742 2.693-10.049 2.095-19.473-1.729-27.252-3.668-7.462-10.23-12.936-18.003-15.019zm.413 37.095c-2.812 10.491-8.922 13.892-13.729 12.599-2.233-.599-4.091-2.204-5.23-4.522-1.655-3.367-1.779-7.95-.359-13.253 2.848-9.904 7.872-13.804 13.729-12.599 2.233.599 4.091 2.204 5.23 4.522 1.655 3.367 1.779 7.95.359 13.253z"/></g></g></svg>