<?xml version="1.0" encoding="iso-8859-1"?>
<!-- Generator: Adobe Illustrator 19.0.0, SVG Export Plug-In . SVG Version: 6.00 Build 0)  -->
<svg version="1.1" id="Capa_1" xmlns="http://www.w3.org/2000/svg" xmlns:xlink="http://www.w3.org/1999/xlink" x="0px" y="0px"
	 viewBox="0 0 414 414" style="enable-background:new 0 0 414 414;" xml:space="preserve">
<path style="fill:#FDC75B;" d="M404.1,141.3v223.5c0,17.3-14.1,31.4-31.4,31.4H41.3c-17.3,0-31.4-14-31.4-31.4V141.3h1.6H403H404.1z
	"/>
<path style="fill:#ED664C;" d="M86.3,57h120.9h120.9h44.5c17.3,0,31.4,14.1,31.4,31.4v52.9h-1H11.5H9.9V88.4C9.9,71.1,24,57,41.3,57
	C41.3,57,86.3,57,86.3,57z"/>
<path d="M372.7,47.2H338V17.8c0-5.5-4.5-10-10-10s-10,4.5-10,10v29.4H217V17.8c0-5.5-4.5-10-10-10s-10,4.5-10,10v29.4H96V17.8
	c0-5.5-4.5-10-10-10s-10,4.5-10,10v29.4H41.3C18.5,47.2,0,65.6,0,88.4v276.4c0,22.8,18.5,41.4,41.3,41.4h331.4
	c22.8,0,41.3-18.5,41.3-41.4V88.4C414,65.6,395.5,47.2,372.7,47.2z M41.3,67.2H76v29.6c0,5.5,4.5,10,10,10s10-4.5,10-10V67.2h101
	v29.6c0,5.5,4.5,10,10,10s10-4.5,10-10V67.2h101v29.6c0,5.5,4.5,10,10,10s10-4.5,10-10V67.2h34.7c11.8,0,21.3,9.4,21.3,21.2v42.8H20
	V88.4C20,76.6,29.5,67.2,41.3,67.2z M372.7,386.2H41.3c-11.8,0-21.3-9.6-21.3-21.4V151.2h374v213.6
	C394,376.6,384.5,386.2,372.7,386.2z"/>
<polygon points="268.1,204.3 277.1,213.3 308.9,181.6 299.8,172.6 "/>
<path d="M250.6,213.3l-3.9,3.9l17.6,17.6l3.9-3.9c4.9-4.9,4.8-12.8,0-17.6C263.3,208.5,255.4,208.5,250.6,213.3z"/>
<path d="M234.6,223.3c-3.8-3.8-10-3.8-13.8,0L183.9,260l37.5,37.5l36.7-36.9c3.8-3.8,3.8-10,0-13.8L234.6,223.3z"/>
<path d="M194.1,324.9l18.3-18.4L174.9,269l-18.4,18.3l-19.6-19.6c-2.5-2.5-6.5-2.5-9,0s-2.5,6.5,0,9.1l19.6,19.6l14.2,14.2l-22,22.1
	l9.1,9l22-22.1l33.9,33.9c1.3,1.3,2.9,1.9,4.5,1.9c1.7,0,3.3-0.6,4.6-1.9c2.5-2.5,2.5-6.5,0-9L194.1,324.9z"/>
<path d="M131.5,334.2c-4.2,0-8.2,1.6-11.2,4.7c-3,3-4.7,7-4.7,11.2s1.7,8.2,4.7,11.2s7,4.7,11.2,4.7s8.2-1.7,11.2-4.7
	s4.7-7,4.7-11.2s-1.7-8.2-4.7-11.2C139.7,335.8,135.7,334.2,131.5,334.2z"/>
<g>
</g>
<g>
</g>
<g>
</g>
<g>
</g>
<g>
</g>
<g>
</g>
<g>
</g>
<g>
</g>
<g>
</g>
<g>
</g>
<g>
</g>
<g>
</g>
<g>
</g>
<g>
</g>
<g>
</g>
</svg>
