<svg height="512" viewBox="0 0 512 512" width="512" xmlns="http://www.w3.org/2000/svg"><g id="filled_outline" data-name="filled outline"><circle cx="256" cy="256" fill="#428dc5" r="232"/><path d="m455.02 275.82c-10.02 100.53-92.85 176.24-191.02 180.04-1.64.07-3.28.12-4.92.14h-5.34q-8.715-.105-17.56-.98c-1.4-.14-2.79-.29-4.18-.46a200.7 200.7 0 0 1 -32-6.52 198.138 198.138 0 0 1 -32-12.38q-4.05-2-8-4.16a200.041 200.041 0 0 1 -103.02-195.32c10.95-109.91 108.93-190.14 218.84-179.2s190.14 108.93 179.2 218.84z" fill="#fbb540"/><path d="m264 344v112h-10.26q-8.715-.105-17.56-.98c-1.4-.14-2.79-.29-4.18-.46v-110.56z" fill="#da922a"/><path d="m312 160v20a19.994 19.994 0 0 1 -20 20h-20v48l.89 8 6.59 59.3a16.019 16.019 0 0 1 -1.59 8.93l-13.89 27.77-32 24v78.56a200.7 200.7 0 0 1 -32-6.52 198.138 198.138 0 0 1 -32-12.38q-4.05-2-8-4.16v-175.5l32-32v-56l32-32h40l24 24z" fill="#ea9d2d"/><circle cx="392" cy="392" fill="#e4e4e2" r="96"/><path d="m240 160h16v16h-16z" fill="#744630"/><path d="m272.89 256h-32.89a8.066 8.066 0 0 1 -4.44-1.34l-38.05-25.37 8.88-13.31 36.03 24.02h29.58v8z" fill="#dc4d41"/><path d="m456 376h-40v-40h-40v40h-40v40h40v40h40v-40h40z" fill="#85bc94"/><path d="m200 392v56.04a198.138 198.138 0 0 1 -32-12.38v-19.66z" fill="#da922a"/><path d="m183.125 266.687-7.125-10.687h-32l-8-32-11.366 13.366a51.983 51.983 0 0 0 -12.6 31.759q-.031.913-.031 1.832v25.043l-31.744 55.547a200.786 200.786 0 0 0 95.741 87.795v-15.342l-8-16v-24l9.954-14.931a36 36 0 0 0 6.046-19.969v-29.1a24 24 0 0 0 24-24v-16a29.9 29.9 0 0 1 -24.875-13.313z" fill="#e4e4e2"/><path d="m152 280h16v16h-16z" fill="#6fbbc6"/><path d="m232 184v8.57a37.946 37.946 0 0 1 -28.79 36.87 2.681 2.681 0 0 1 -.27.07l-20.91 4.46 9.97-9.97v-8.52l7.46-1.59a21.979 21.979 0 0 0 16.54-21.32v-8.57z" fill="#da922a"/><path d="m425.705 86.294a240 240 0 1 0 -339.405 339.412 240.192 240.192 0 0 0 252.482 55.609 103.955 103.955 0 0 0 142.533-142.539 240.191 240.191 0 0 0 -55.61-252.482zm-169.705 393.706a224 224 0 0 1 -158.392-382.392 224.062 224.062 0 0 1 372.173 225.437 104.919 104.919 0 0 0 -13.043-12.377 208.423 208.423 0 0 0 7.262-54.668c0-114.691-93.309-208-208-208s-208 93.309-208 208 93.309 208 208 208a208.3 208.3 0 0 0 54.667-7.264 105.01 105.01 0 0 0 12.377 13.045 223.267 223.267 0 0 1 -67.044 10.219zm-88-216h3.719l4.75 7.125a37.815 37.815 0 0 0 23.531 16.026v8.849a16.019 16.019 0 0 1 -16 16 8 8 0 0 0 -8 8v29.1a27.917 27.917 0 0 1 -4.7 15.532l-9.954 14.93a8 8 0 0 0 -1.346 4.438v24a7.994 7.994 0 0 0 .845 3.578l7.155 14.311v.723a193.378 193.378 0 0 1 -78.511-75.093l29.457-51.55a8 8 0 0 0 1.054-3.969v-25.043c0-.518.008-1.035.026-1.561a44.111 44.111 0 0 1 10.7-26.847l1.285-1.511 4.225 16.9a8 8 0 0 0 7.764 6.062zm15.155 156.422-2.1-4.21 10.945-8.212v29.018q-4.042-1.434-8-3.04v-9.978a7.994 7.994 0 0 0 -.845-3.578zm20.423-35.577a8 8 0 0 0 -8.378.755l-19.2 14.4v-13.578l8.61-12.915a43.865 43.865 0 0 0 7.39-24.407v-22.112a32.059 32.059 0 0 0 24-30.988v-16a8 8 0 0 0 -8-8 21.854 21.854 0 0 1 -18.219-9.75l-7.125-10.688a8 8 0 0 0 -3.854-3.05l17.615-17.612 2.656-.567 36.489 24.326a8 8 0 0 0 4.438 1.341h24.84l6.687 60.185a7.976 7.976 0 0 1 -.8 4.463l-13.042 26.085-30.485 22.867a8 8 0 0 0 -3.2 6.4v69.319q-8.117-1.368-16-3.394v-49.925a8 8 0 0 0 -4.422-7.155zm60.422-184.845v40h-21.578l-25.58-17.053a37.944 37.944 0 0 0 15.158-30.377v-8.57h-16v8.57a21.964 21.964 0 0 1 -16 21.153v-42.409l27.313-27.314h33.374l21.656 21.657a8 8 0 0 0 5.657 2.343h16v12a12.013 12.013 0 0 1 -12 12h-20a8 8 0 0 0 -8 8zm-24 180 16-12v80c-5.388 0-10.723-.235-16-.672zm32-26.111 13.041-26.084a23.96 23.96 0 0 0 2.389-13.385l-7.43-66.863v-39.557h12a28.032 28.032 0 0 0 28-28v-20a8 8 0 0 0 -8-8h-20.687l-21.656-21.657a8 8 0 0 0 -5.657-2.343h-40a8 8 0 0 0 -5.657 2.343l-32 32a8 8 0 0 0 -2.343 5.657v52.686l-27.314 27.314h-6.44l-6.485-25.94a8 8 0 0 0 -13.856-3.243l-11.366 13.367a60.155 60.155 0 0 0 -14.5 36.659c-.024.7-.036 1.409-.036 2.114v22.918l-23.213 40.617a190.884 190.884 0 0 1 -16.79-78.492c0-105.869 86.131-192 192-192s192 86.131 192 192a192.775 192.775 0 0 1 -5.355 45.194 103.958 103.958 0 0 0 -141.452 141.45 191.553 191.553 0 0 1 -29.193 4.69zm120 126.111a88 88 0 1 1 88-88 88.1 88.1 0 0 1 -88 88z"/><path d="m240 160h16v16h-16z"/><path d="m152 280h16v16h-16z"/><path d="m424 336a8 8 0 0 0 -8-8h-40a8 8 0 0 0 -8 8v32h-32a8 8 0 0 0 -8 8v40a8 8 0 0 0 8 8h32v32a8 8 0 0 0 8 8h40a8 8 0 0 0 8-8v-28.625q1.706-1.674 3.376-3.375h28.624a8 8 0 0 0 8-8v-40a8 8 0 0 0 -8-8h-32zm24 48v24h-32a8 8 0 0 0 -8 8v32h-24v-32a8 8 0 0 0 -8-8h-32v-24h32a8 8 0 0 0 8-8v-32h24v32a8 8 0 0 0 8 8z"/></g></svg>